<?xml version="1.0" standalone="no"?>
<!DOCTYPE svg PUBLIC "-//W3C//DTD SVG 20010904//EN"
 "http://www.w3.org/TR/2001/REC-SVG-20010904/DTD/svg10.dtd">
<svg version="1.0" xmlns="http://www.w3.org/2000/svg"
 width="500.000000pt" height="500.000000pt" viewBox="0 0 500.000000 500.000000"
 preserveAspectRatio="xMidYMid meet">
<metadata>
Created by potrace 1.11, written by Peter Selinger 2001-2013
</metadata>
<g transform="translate(0.000000,500.000000) scale(0.100000,-0.100000)"
fill="#000000" stroke="none">
<path d="M2048 4643 c-10 -2 -18 -8 -17 -11 0 -4 24 -117 53 -252 l52 -245 29
0 c26 0 30 3 27 25 -3 22 -84 411 -97 468 -5 22 -13 24 -47 15z"/>
<path d="M2936 4633 c-5 -17 -106 -491 -106 -498 0 -1 14 -5 30 -7 25 -4 31
-1 35 16 40 186 103 491 102 492 -1 1 -14 4 -29 8 -20 5 -28 2 -32 -11z"/>
<path d="M2500 4300 l0 -130 30 0 30 0 0 130 0 130 -30 0 -30 0 0 -130z"/>
<path d="M1226 4275 c-10 -8 -16 -20 -13 -27 4 -11 229 -322 285 -395 17 -23
17 -23 40 -3 l24 20 -89 121 c-48 67 -116 160 -150 208 -34 47 -66 87 -70 88
-4 1 -16 -4 -27 -12z"/>
<path d="M3250 4223 c-72 -159 -83 -184 -79 -187 2 -3 16 -7 30 -11 25 -6 28
-2 78 111 51 116 59 144 42 144 -5 0 -16 3 -25 6 -11 4 -23 -12 -46 -63z"/>
<path d="M3620 4078 l-153 -211 24 -19 c22 -19 24 -19 37 -1 147 197 292 405
287 413 -3 5 -14 14 -24 20 -16 8 -38 -18 -171 -202z"/>
<path d="M1713 4273 c-7 -2 -13 -9 -13 -15 0 -23 103 -248 114 -248 7 0 20 6
30 13 16 12 13 21 -37 132 -51 113 -65 131 -94 118z"/>
<path d="M3905 3792 c-22 -20 -68 -62 -103 -93 l-62 -56 19 -24 19 -23 53 47
c30 25 78 68 107 94 l53 48 -23 22 -23 22 -40 -37z"/>
<path d="M1059 3788 c-10 -19 -8 -25 13 -42 14 -12 60 -52 102 -90 l77 -69 22
22 22 21 -30 28 c-99 90 -173 152 -183 152 -6 0 -17 -10 -23 -22z"/>
<path d="M2467 3749 c-129 -21 -217 -127 -218 -262 0 -74 18 -123 68 -178 152
-168 433 -77 460 149 9 81 -18 155 -81 218 -66 65 -137 88 -229 73z m159 -91
c148 -101 111 -319 -63 -372 l-23 -7 0 205 c0 236 -2 233 86 174z"/>
<path d="M621 3603 c-7 -14 -8 -30 -4 -34 4 -4 51 -32 103 -62 52 -30 149 -86
215 -125 108 -63 121 -69 133 -54 7 9 11 23 10 31 -2 8 -95 68 -208 133 -113
65 -212 123 -221 128 -12 7 -19 3 -28 -17z"/>
<path d="M4290 3564 c-103 -60 -177 -103 -282 -162 -38 -20 -68 -41 -68 -47 1
-5 7 -18 15 -29 13 -17 26 -11 237 110 123 70 224 128 226 129 5 4 -21 55 -27
55 -3 0 -49 -25 -101 -56z"/>
<path d="M4222 3088 c-113 -37 -122 -42 -116 -62 3 -11 9 -24 13 -28 6 -6 246
66 260 78 8 7 -10 54 -22 53 -6 -1 -67 -19 -135 -41z"/>
<path d="M664 3094 c-4 -14 -3 -29 2 -34 18 -16 245 -83 254 -74 4 5 10 18 12
28 3 19 -52 42 -214 91 -48 14 -48 14 -54 -11z"/>
<path d="M3057 2905 c-221 -56 -240 -374 -28 -462 53 -23 162 -19 215 7 73 35
116 108 116 196 l0 44 -110 0 -110 0 0 -45 0 -45 55 0 c62 0 70 -13 33 -47
-85 -79 -226 -26 -243 91 -22 143 134 238 234 142 l27 -26 37 27 c20 14 37 29
37 33 0 11 -54 57 -85 73 -42 20 -123 26 -178 12z"/>
<path d="M3520 2676 l0 -246 45 0 44 0 3 134 3 134 140 -134 c77 -73 143 -133
148 -134 4 0 7 108 7 240 l0 240 -45 0 -45 0 0 -137 0 -137 -33 35 c-31 32
-95 93 -214 203 l-53 49 0 -247z"/>
<path d="M1110 2670 l0 -240 88 0 c155 1 229 32 280 119 23 39 27 58 27 121 0
90 -27 148 -91 193 -52 36 -97 46 -211 47 l-93 0 0 -240z m251 114 c35 -33 49
-78 43 -136 -9 -78 -68 -128 -151 -128 l-43 0 0 151 0 152 61 -6 c49 -4 67
-11 90 -33z"/>
<path d="M1670 2670 l0 -240 165 0 165 0 -2 45 -2 45 -113 0 -113 0 0 35 c0
19 3 34 8 34 4 -1 46 -1 95 0 l87 1 0 40 0 40 -95 0 -95 0 0 75 0 74 108 3
107 3 1 30 c1 56 3 55 -162 55 l-154 0 0 -240z"/>
<path d="M2192 2876 c-34 -32 -37 -39 -37 -89 0 -74 22 -103 115 -148 104 -51
126 -94 60 -118 -37 -12 -68 -4 -102 26 l-26 25 -41 -22 c-47 -27 -44 -41 16
-87 34 -26 43 -28 125 -28 l90 0 34 37 c33 36 39 58 34 118 -4 50 -33 80 -118
123 -90 46 -113 77 -77 104 26 18 48 16 73 -7 27 -25 31 -25 66 3 35 28 31 48
-16 77 -24 14 -51 20 -96 20 -57 0 -65 -3 -100 -34z"/>
<path d="M2620 2670 l0 -240 50 0 50 0 0 240 0 240 -50 0 -50 0 0 -240z"/>
<path d="M1130 2288 c0 -2 -9 -106 -20 -233 -11 -126 -20 -233 -20 -237 0 -5
22 -8 49 -8 l48 0 9 123 9 122 21 -35 c12 -19 41 -61 66 -93 l46 -58 49 64
c28 34 56 74 63 87 13 23 13 24 21 5 4 -11 8 -47 8 -80 1 -33 4 -77 7 -97 7
-38 7 -38 55 -38 l49 0 -6 58 c-2 31 -11 137 -19 236 -8 98 -17 181 -21 185
-3 3 -11 -2 -18 -12 -6 -10 -50 -72 -98 -137 l-86 -119 -99 134 c-82 112 -113
148 -113 133z"/>
<path d="M1700 2280 c0 -5 13 -31 28 -57 16 -27 57 -99 91 -161 61 -110 62
-114 59 -180 l-3 -67 48 -3 c26 -2 47 -2 48 0 0 2 3 39 5 83 6 76 10 87 82
225 43 80 78 151 80 158 2 8 -11 12 -42 12 -44 0 -47 -2 -76 -47 -16 -27 -44
-79 -61 -118 l-32 -70 -54 104 c-29 58 -58 110 -64 118 -13 15 -109 18 -109 3z"/>
<path d="M2519 2081 c-1 -116 -1 -223 -2 -238 l-1 -28 98 -3 c70 -2 112 2 147
13 198 66 204 361 9 443 -20 8 -82 17 -142 20 l-108 5 -1 -212z m231 91 c76
-56 79 -199 5 -248 -36 -23 -116 -36 -131 -21 -7 8 -9 60 -6 156 l4 144 52 -7
c28 -3 62 -14 76 -24z"/>
<path d="M3107 2068 c-53 -123 -99 -231 -103 -240 -5 -16 0 -18 44 -18 45 0
50 3 56 25 6 25 8 25 106 25 98 0 100 0 106 -25 6 -23 11 -25 61 -25 30 0 53
4 51 8 -28 73 -213 472 -218 472 -3 0 -50 -100 -103 -222z m130 -41 c13 -34
25 -66 26 -72 2 -10 -102 -15 -108 -5 -2 3 8 32 21 64 13 33 24 66 24 74 0 26
13 4 37 -61z"/>
<path d="M3460 2280 c0 -10 147 -280 161 -295 5 -5 9 -46 9 -92 l0 -83 50 0
c28 0 50 1 51 3 0 1 3 39 6 84 5 80 8 89 84 233 43 83 79 153 79 155 0 3 -22
5 -50 5 l-50 0 -58 -118 -59 -119 -20 46 c-10 25 -38 79 -62 119 l-42 72 -49
0 c-28 0 -50 -4 -50 -10z"/>
<path d="M3974 1665 c-9 -14 -15 -27 -13 -29 2 -1 57 -33 122 -70 112 -63 120
-66 133 -49 22 29 17 37 -43 71 -32 17 -86 48 -120 67 l-62 36 -17 -26z"/>
<path d="M937 1606 c-60 -35 -111 -66 -113 -69 -7 -6 18 -47 29 -47 10 0 237
130 237 136 0 15 -22 44 -33 44 -7 -1 -61 -29 -120 -64z"/>
<path d="M1110 1289 c-184 -165 -240 -219 -240 -228 0 -4 8 -15 18 -24 16 -14
26 -7 147 100 258 230 258 230 245 252 -6 12 -16 21 -23 21 -7 0 -73 -55 -147
-121z"/>
<path d="M3744 1389 c-22 -24 -33 -11 225 -243 l143 -128 22 21 21 22 -45 42
c-66 63 -339 307 -343 307 -2 0 -12 -9 -23 -21z"/>
<path d="M3506 1141 c-17 -18 -16 -21 27 -78 24 -32 58 -79 77 -105 36 -51 46
-56 74 -35 18 13 13 21 -60 122 -44 60 -84 110 -90 112 -6 2 -18 -5 -28 -16z"/>
<path d="M1436 1039 l-80 -111 25 -19 c13 -10 27 -15 30 -11 10 12 114 156
137 188 21 30 21 32 3 48 -9 9 -22 16 -27 16 -5 0 -45 -50 -88 -111z"/>
<path d="M1771 928 c-16 -40 -63 -147 -104 -238 -41 -91 -72 -168 -68 -172 4
-4 17 -9 30 -10 21 -3 32 17 127 231 57 129 103 235 102 236 -7 5 -47 25 -51
25 -3 0 -19 -33 -36 -72z"/>
<path d="M3183 987 c-13 -5 -23 -13 -23 -17 0 -3 26 -65 58 -136 32 -71 78
-174 103 -229 24 -55 44 -102 46 -104 1 -2 14 0 29 3 21 6 25 11 20 30 -7 28
-195 448 -204 457 -4 4 -17 2 -29 -4z"/>
<path d="M2126 734 c-15 -69 -25 -132 -22 -140 3 -8 16 -14 28 -14 22 0 25 9
51 132 28 137 27 147 -14 148 -12 0 -22 -28 -43 -126z"/>
<path d="M2852 838 c3 -13 16 -76 29 -140 24 -121 31 -132 69 -108 15 9 13 27
-26 203 -15 65 -17 67 -46 67 -26 0 -30 -3 -26 -22z"/>
<path d="M2500 585 l0 -255 30 0 30 0 0 255 0 255 -30 0 -30 0 0 -255z"/>
</g>
</svg>
